<?xml version="1.0" encoding="utf-8"?>
<!-- Generator: Adobe Illustrator 23.0.1, SVG Export Plug-In . SVG Version: 6.00 Build 0)  -->
<svg version="1.1" id="Layer_1" xmlns="http://www.w3.org/2000/svg" xmlns:xlink="http://www.w3.org/1999/xlink" x="0px" y="0px"
	 viewBox="0 0 800 255" style="enable-background:new 0 0 800 255;" xml:space="preserve">
<style type="text/css">
	.st0{fill:#F1DA5B;}
</style>
<g>
	<g>
		<path class="st0" d="M449.49,198.64c-0.12,5.65-0.25,11.31-0.37,16.96c-0.05,2.15-1.02,2.39-1.62,0.32
			c-1.16-4.03-1.7-7.53-3.02-11.09c-0.4-1.07-0.74-1.48-1.61-0.76c-6.81,5.6-13.85,10.81-22.01,14.44
			c-20.61,9.18-19.39,6.76-21.28-10.63c-0.14-1.24-1.53-1.9-2.57-1.21c-8.39,5.51-16.94,9.39-25.67,13.91
			c-5.15,2.67-9.95,6.29-14.21-1.62c-9.35-17.36-11.39-15.09,4.97-21.11c29.8-10.97,38.54-33.78,39.77-61.29
			c0.64-14.31,9.11-11.56,17.08-11.35c10.19,0.27,6.32,9.09,5.92,14.01c-1.5,18.32-4.85,36.25-15.5,52.25
			c-0.87,1.31,0.38,2.98,1.89,2.51c20.72-6.37,32.04-25.01,34.4-56.05c0.53-7.03-0.71-13.4,10.39-13.35
			c10.46,0.04,13.75,2.62,12.98,13.42c-1.56,21.69-8.26,41.39-19.28,59.84C449.58,198.07,449.5,198.35,449.49,198.64z"/>
		<path class="st0" d="M727.51,208.98c-17.29-0.22-53.08-19.56-48.13-24.25c4.35-4.12,9.91-13.31,16.88-8.12
			c23.92,17.83,46.03,11.83,68.09-2.71c8.48-5.59,10.39,2.81,12.96,6.5c3.15,4.5,5.46,7.28-0.79,11.19
			C760.88,201.37,744.67,208.96,727.51,208.98z"/>
		<g>
			<path class="st0" d="M772.08,33.81c-28.42,0.47-56.85,0.32-85.27,0.1c-7.65-0.06-13.12-0.13-12.89,10.58
				c0.2,9.66,2.48,13.14,12.64,12.78c21.43-0.76,42.9-0.33,64.35-0.13c4.16,0.04,9.45-2.06,9.1,6.69
				c-1.29,31.78-24.44,59.35-55.45,60.99c-33.17,1.75-66.48,0.71-99.73,0.81c-3.55,0.01-6.92,0.63-8.34-4.85
				c-5.7-22.08,16.64-57.26,38.88-61.53c7.32-1.41,6.71,2.25,6.7,6.75c-0.04,15.02,0.56,30.07-0.28,45.04
				c-0.56,10.1,4.54,9.34,11.71,9.23c6.94-0.11,12.23,1.12,11.9-9.14c-0.71-22.5-0.41-45.05-0.11-67.57
				c0.09-6.7-1.78-9.15-8.94-9.63c-37.73-2.55-69.16,20.36-78.61,57.87c-0.19,0.75-0.66,1.43-1.36,1.75
				c-0.08,0.04-0.16,0.06-0.24,0.09c-0.41,0.11-1.22,0.12-1.35-0.22c-1.34-3.83-1.55-9.14-1.82-13.73
				c-1.22-20.44,0.23-38.01,0.23-58.38c0-5.06-3.07-5.28-4.39-5.3c-18.55-0.39-18.39,0.33-18.56,19.69
				c-0.27,31.56,0.51,63.21-1.58,94.67c-2.11,31.74-20.22,55.84-45.96,63.98c-2.4,0.76-4.46-1.85-3.17-4.01
				c10.63-17.88,14.11-36.96,15.46-56.76c0.44-6.47-0.95-7.74-7.42-8.39c-12.19-1.22-16.15,2.47-16.74,15.19
				c-1.26,27.11-11.51,49.18-40.08,57.46c-0.82,0.24-1.49,0.84-1.81,1.63c-2.76,6.87-2.14,13.82-0.49,20.79
				c0.29,1.23,1.59,3.39,2.82,3.1c13.34-3.12,23.24-9.26,34.15-15.92c1.71-1.04,3.49,0.13,4.14,2.02
				c4.66,13.44,3.3,15.28,18.32,9.05c32.42-11.55,51.45-34.95,59.86-67.34c0.55-2.1,4.5-3.32,4.67-1.15
				c0.3,3.73,0.18,7.11,0.42,10.29c1.6,20.69-2.24,41.59,1.84,62.22c0.25,1.27,1.35,2.21,2.65,2.22
				c46.21,0.41,75.78-19.95,83.66-60.19c2.73-13.93,8.3-17.53,21.06-16.15c7.92,0.86,16.12,0.34,24.08-0.56
				c33.24-3.73,56.74-20.54,68.96-52.23c6.25-16.22,8.5-32.98,8.96-50.3C784.31,35.77,780.89,33.66,772.08,33.81z M639.9,156.02
				c-3.84,18.22-12.05,32.85-30.03,40.85c-10.16,4.52-12.89,2.92-13.61-8.99c-0.26-4.25,0.09-8.57,0.09-14.1
				c0.09-20.7-2.13-25,4.16-24.94c11.56,0.11,23.76-0.29,36.06,0.05C640.7,149,640.68,152.32,639.9,156.02z"/>
		</g>
		<g>
			<path class="st0" d="M363.08,33.89c-36.24-0.65-65.22,20.05-75.87,54.87c-4.91,16.06-5.66,32.51-5.8,49.18
				c-0.07,8.47,2.47,11.14,10.86,10.83c15.5-0.58,31.05,0.06,46.56-0.25c7.56-0.15,10.31,0.95,7.72,9.83
				c-5.3,18.14-14.54,32.33-33.22,37.92c-14.53,4.35-9.42,16.25-7.88,23.76c1.45,7.03,10.04,1.82,14.94,0.14
				c25.99-8.86,40.55-28.06,48.02-53.78c7.15-24.64,5.49-49.82,5.62-74.92c0-15.52-0.41-31.06,0.16-46.57
				C374.52,36.3,371.29,34.03,363.08,33.89z M351.46,69.1c-0.8,7.95-0.16,16.04-0.16,24.07c-1.2,34.45-1.19,34.15-36.11,32.75
				c-8.61-0.35-10.93-2.65-9.8-11.28c3.08-23.39,9.72-43.97,34.19-53.64C348.04,57.65,352.56,58.17,351.46,69.1z"/>
		</g>
		<path class="st0" d="M38.04,174.79c-2.7,0-5.25-0.46-7.66-1.37c-2.41-0.91-4.54-2.24-6.4-3.99c-0.73-0.69-1.49-1.53-2.27-2.52
			c-0.78-0.98-1.49-2.15-2.11-3.5c-0.62-1.35-1.13-2.87-1.53-4.57c-0.4-1.7-0.6-3.6-0.6-5.72c0-1.82,0.18-3.8,0.55-5.93
			c0.36-2.13,0.77-4.15,1.23-6.04c0.46-1.9,0.88-3.54,1.29-4.92c0.4-1.39,0.66-2.24,0.77-2.57l6.51,2.08l6.45,2.02
			c-0.33,0.98-0.68,2.16-1.04,3.53c-0.37,1.37-0.71,2.77-1.04,4.21c-0.33,1.44-0.6,2.84-0.82,4.18c-0.22,1.35-0.33,2.52-0.33,3.5
			c0,1.75,0.25,3.16,0.74,4.24c0.49,1.08,1.09,1.9,1.8,2.46c0.71,0.57,1.49,0.94,2.32,1.12c0.84,0.18,1.59,0.27,2.24,0.27
			l32.38-0.05c4.41,0,8.3-0.04,11.68-0.11c3.37-0.07,6.24-0.26,8.59-0.57c2.35-0.31,4.22-0.78,5.61-1.42
			c1.39-0.64,2.28-1.5,2.68-2.6c0.11-0.29,0.16-0.62,0.16-0.98c0-0.47-0.15-1.1-0.44-1.89c-0.29-0.78-0.87-1.78-1.72-2.98
			s-1.89-2.51-3.09-3.91c-1.2-1.4-2.52-2.87-3.94-4.4c-3.32-3.5-6.35-6.51-9.11-9.03c-2.75-2.52-5.11-4.58-7.08-6.21
			c-1.97-1.62-3.51-2.83-4.62-3.61c-1.11-0.78-1.69-1.18-1.72-1.18l0.98-14.66l49.28-21.99l5.47,12.47L81.8,116.21
			c2.59,1.93,5.41,4.31,8.48,7.14c3.06,2.83,6.4,6.24,10.01,10.25c1.49,1.68,2.93,3.34,4.32,4.98c1.39,1.64,2.61,3.32,3.66,5.03
			c1.06,1.71,1.9,3.51,2.54,5.39c0.64,1.88,0.96,3.88,0.96,5.99c0,0.36,0,0.76,0,1.18c0,0.42-0.04,0.79-0.11,1.12
			c-0.62,4.12-1.99,7.36-4.1,9.71c-2.12,2.35-4.92,4.1-8.42,5.25c-3.5,1.15-7.65,1.86-12.44,2.13c-4.8,0.27-10.18,0.41-16.16,0.41
			H38.04z M69.05,91.43l43.39-18.52l2.96,6.27l-47.09,20.2L69.05,91.43z"/>
		<path class="st0" d="M130.09,174.73v-13.62h23.46c4.23,0,7.64-0.36,10.23-1.07c2.59-0.71,4.59-1.89,6.02-3.53
			c1.42-1.64,2.37-3.81,2.84-6.51c0.47-2.7,0.71-6.03,0.71-10.01V95.92h13.56v56.61c0,1.28,0.2,2.44,0.6,3.5
			c0.4,1.06,0.96,1.97,1.67,2.73c0.71,0.77,1.57,1.36,2.57,1.78c1,0.42,2.11,0.63,3.31,0.63h2.79v13.62h-2.79
			c-3.61,0-6.75-0.68-9.41-2.05c-2.66-1.37-5.01-3.31-7.06-5.83c-2.7,2.52-6.11,4.45-10.23,5.8c-4.12,1.35-9.06,2.02-14.82,2.02
			H130.09z M136.38,152.14l-3.56-54.09l13.51-1.59l3.61,55.68H136.38z"/>
		<path class="st0" d="M227.06,128.84c0.07,0.26,0.23,0.86,0.46,1.81c0.24,0.95,0.5,2.11,0.79,3.47c0.29,1.37,0.59,2.89,0.9,4.57
			c0.31,1.68,0.6,3.36,0.88,5.06c0.27,1.7,0.49,3.35,0.66,4.95c0.16,1.6,0.25,3.01,0.25,4.21c0,3.76-0.62,7.01-1.86,9.76
			c-1.24,2.75-2.86,5.02-4.87,6.81c-2.01,1.79-4.26,3.12-6.75,3.99c-2.5,0.88-5,1.31-7.52,1.31h-14.55v-13.62h14.93
			c0.44,0,1.07-0.06,1.89-0.19c0.82-0.13,1.64-0.46,2.46-1.01c0.82-0.55,1.54-1.38,2.16-2.49c0.62-1.11,0.93-2.63,0.93-4.57
			c0-0.8-0.06-1.78-0.19-2.93c-0.13-1.15-0.3-2.38-0.52-3.69c-0.22-1.31-0.46-2.65-0.74-4.02c-0.27-1.37-0.54-2.66-0.79-3.88
			c-0.26-1.22-0.51-2.33-0.77-3.34c-0.26-1-0.46-1.78-0.6-2.32L227.06,128.84z M203.16,193.82l9.85-9.95l10.06,10.06l-9.95,9.95
			L203.16,193.82z"/>
	</g>
</g>
</svg>
